<svg width="31" height="31" viewBox="0 0 31 31" fill="none" xmlns="http://www.w3.org/2000/svg">
<path d="M18.0975 1.47189C17.1953 1.49006 16.5475 1.66564 16.1176 1.98049L10.2264 5.13498L6.95082 9.59062C6.26058 10.6562 6.75101 12.7148 8.90648 11.3949L11.2678 8.28281C14.2649 5.69807 20.3801 6.88418 17.4799 12.073C16.0571 15.0762 16.7231 16.5414 18.5577 17.159L19.3932 14.3496C20.8403 11.0922 23.5407 10.5049 23.4317 7.87715L29.9223 8.34336L29.8618 1.55666L18.0975 1.47189ZM14.8219 7.73183C13.7684 7.71367 12.733 8.14961 11.9823 8.7793L9.61488 11.8914C10.2627 12.4061 10.9166 12.1275 11.5645 11.5039C12.3274 11.8914 12.9207 11.292 13.4051 10.0932C13.6049 9.27578 13.9016 8.70058 14.8219 7.73183ZM10.0024 13.5443C9.97816 13.5443 9.94789 13.5443 9.92367 13.5504C9.72387 13.5928 9.48773 13.8047 9.33031 14.2891C9.16683 14.7734 9.13051 15.4637 9.27582 16.2023C9.42113 16.935 9.72387 17.5586 10.0629 17.9461C10.3899 18.3275 10.6926 18.4365 10.8924 18.3941C11.0983 18.3578 11.3284 18.1398 11.4858 17.6615C11.6493 17.1771 11.6916 16.4809 11.5463 15.7482C11.395 15.0096 11.0922 14.3859 10.7592 14.0045C10.4686 13.6654 10.2022 13.5443 10.0024 13.5443ZM15.0036 20.0107C14.5252 20.0168 13.9258 20.1682 13.3385 20.4527C12.6664 20.7857 12.1397 21.2459 11.8551 21.6697C11.5705 22.0875 11.5463 22.4023 11.6371 22.59C11.728 22.7717 11.9944 22.9473 12.503 22.9715C13.0116 23.0018 13.6957 22.8625 14.3678 22.5295C15.0399 22.1965 15.5666 21.7424 15.8512 21.3186C16.1358 20.9008 16.16 20.5799 16.0692 20.3982C15.9784 20.2105 15.712 20.041 15.2034 20.0168C15.1368 20.0107 15.0762 20.0107 15.0036 20.0107ZM9.09418 25.799C8.80961 25.8051 8.54926 25.8475 8.31918 25.9141C7.80453 26.0654 7.50785 26.3379 7.41097 26.6588C7.30805 26.9857 7.41098 27.3732 7.75609 27.791C8.10726 28.2027 8.69457 28.5963 9.42113 28.8143C10.1416 29.0322 10.844 29.0262 11.3647 28.8687C11.8854 28.7174 12.1821 28.4449 12.2789 28.124C12.3758 27.7971 12.2789 27.4096 11.9278 26.9918C11.5827 26.5801 10.9954 26.1865 10.2688 25.9686C9.85707 25.8475 9.45746 25.793 9.09418 25.799Z" fill="white"/>
</svg>
