<svg width="24" height="24" viewBox="0 0 24 24" fill="none" xmlns="http://www.w3.org/2000/svg">
<path d="M7.58004 13.06V20.14C7.58004 20.559 7.41358 20.9609 7.11727 21.2572C6.82096 21.5535 6.41908 21.72 6.00004 21.72H4.12004C3.701 21.72 3.29912 21.5535 3.00281 21.2572C2.7065 20.9609 2.54004 20.559 2.54004 20.14V13.06C2.54003 12.64 2.70617 12.2371 3.0022 11.9392C3.29822 11.6413 3.70008 11.4726 4.12004 11.47H6.00004C6.42 11.4726 6.82186 11.6413 7.11788 11.9392C7.4139 12.2371 7.58005 12.64 7.58004 13.06ZM14.52 8.47V20.17C14.5174 20.59 14.3487 20.9918 14.0508 21.2878C13.7529 21.5839 13.35 21.75 12.93 21.75H11.06C10.6401 21.75 10.2372 21.5839 9.93926 21.2878C9.64136 20.9918 9.47268 20.59 9.47004 20.17V8.47C9.47004 8.04831 9.63756 7.64388 9.93574 7.3457C10.2339 7.04752 10.6383 6.88 11.06 6.88H12.93C13.3517 6.88 13.7562 7.04752 14.0543 7.3457C14.3525 7.64388 14.52 8.04831 14.52 8.47ZM21.46 3.84V20.17C21.4574 20.59 21.2887 20.9918 20.9908 21.2878C20.6929 21.5839 20.29 21.75 19.87 21.75H18C17.5801 21.75 17.1772 21.5839 16.8793 21.2878C16.5814 20.9918 16.4127 20.59 16.41 20.17V3.84C16.41 3.41831 16.5776 3.01388 16.8757 2.7157C17.1739 2.41752 17.5783 2.25 18 2.25H19.87C20.2917 2.25 20.6962 2.41752 20.9943 2.7157C21.2925 3.01388 21.46 3.41831 21.46 3.84Z" fill="white"/>
</svg>
