<svg width="23" height="23" viewBox="0 0 23 23" fill="none" xmlns="http://www.w3.org/2000/svg">
<path id="bag-shopping" opacity="0.8" d="M20.125 0C21.7422 0 23 1.26624 23 2.84904V15.828C23 17.3656 21.6973 18.677 20.125 18.677H13.6562L8.04102 22.8828C7.68164 23.1541 7.1875 22.928 7.1875 22.4758V18.677H2.875C1.25781 18.677 0 17.4108 0 15.828V2.84904C0 1.26624 1.25781 0 2.875 0H20.125ZM20.8887 15.8732V2.84904C20.8887 2.48726 20.5293 2.12547 20.1699 2.12547H2.91992C2.51562 2.12547 2.20117 2.48726 2.20117 2.84904V15.8732C2.20117 16.2802 2.51562 16.5968 2.91992 16.5968H9.38867V19.3102L12.9824 16.5968H20.1699C20.5293 16.5968 20.8887 16.2802 20.8887 15.8732ZM14.7344 5.01974C16.127 5.01974 17.25 6.19553 17.25 7.59744V10.4465C17.25 12.2102 15.7676 13.7025 14.0156 13.7025C13.4316 13.7025 12.9824 13.2503 12.9824 12.6172C12.9824 12.0293 13.4316 11.5318 14.0605 11.5318C14.6445 11.5318 15.1387 11.0796 15.0938 10.4465V9.99425C14.959 9.99425 14.8242 10.0395 14.7344 10.0395C13.3418 10.0395 12.2188 8.9089 12.2188 7.55222C12.2188 6.19553 13.3418 5.01974 14.7344 5.01974ZM8.26562 5.01974C9.6582 5.01974 10.7812 6.19553 10.7812 7.55222L10.7363 10.4465C10.7363 12.2102 9.29883 13.7025 7.54688 13.7025C6.96289 13.7025 6.51367 13.2503 6.51367 12.6172C6.51367 12.0293 6.96289 11.5318 7.5918 11.5318C8.17578 11.5318 8.66992 11.0796 8.625 10.4465V9.99425C8.49023 9.99425 8.35547 10.0395 8.26562 10.0395C6.87305 10.0395 5.75 8.9089 5.75 7.55222C5.75 6.19553 6.87305 5.01974 8.26562 5.01974Z" fill="#DEE4DF"/>
</svg>
