<svg width="32" height="32" viewBox="0 0 32 32" fill="none" xmlns="http://www.w3.org/2000/svg">
<g id="Dashboard">
<path id="Vector" opacity="0.9" d="M17.1578 26.4708C17.1578 27.0231 17.6055 27.4708 18.1578 27.4708H24.8924C26.3105 27.4708 27.4707 26.3106 27.4707 24.8926V16.8688C27.4707 16.3165 27.023 15.8688 26.4707 15.8688H18.1578C17.6055 15.8688 17.1578 16.3165 17.1578 16.8688V26.4708Z" fill="white"/>
<path id="Vector_2" opacity="0.4" d="M27.4707 6.84495V12.2905C27.4707 12.8428 27.023 13.2905 26.4707 13.2905H18.1578C17.6055 13.2905 17.1578 12.8428 17.1578 12.2905V5.26672C17.1578 4.71444 17.6055 4.26672 18.1578 4.26672H24.8924C26.3105 4.26672 27.4707 5.42692 27.4707 6.84495Z" fill="white"/>
<path id="Vector_3" d="M6.84489 27.4707H13.5796C14.1318 27.4707 14.5796 27.023 14.5796 26.4707V5.26672C14.5796 4.71444 14.1318 4.26672 13.5796 4.26672H6.84489C5.42686 4.26672 4.26666 5.42692 4.26666 6.84495V24.8925C4.26666 26.3105 5.42686 27.4707 6.84489 27.4707Z" fill="white"/>
</g>
</svg>
