<svg width="16" height="16" viewBox="0 0 16 16" fill="none" xmlns="http://www.w3.org/2000/svg">
<g id="ic_google logo">
<path id="Path" d="M16 8.18399C16 7.64019 15.955 7.09345 15.8591 6.55847H8.16119V9.63902H12.5694C12.3865 10.6326 11.7987 11.5115 10.9381 12.07V14.0688H13.568C15.1124 12.6755 16 10.6179 16 8.18399Z" fill="#4285F4"/>
<path id="Path_2" d="M8.16119 16C10.3623 16 12.2185 15.2916 13.571 14.0688L10.9411 12.07C10.2094 12.5579 9.26474 12.8342 8.16418 12.8342C6.03505 12.8342 4.22978 11.4262 3.58205 9.5332H0.868149V11.5938C2.25359 14.2951 5.07544 16 8.16119 16Z" fill="#34A853"/>
<path id="Path_3" d="M3.57905 9.5332C3.23719 8.53967 3.23719 7.46382 3.57905 6.47029V4.40973H0.868147C-0.289382 6.67017 -0.289382 9.33332 0.868147 11.5938L3.57905 9.5332Z" fill="#FBBC04"/>
<path id="Path_4" d="M8.16119 3.16633C9.32471 3.1487 10.4493 3.57786 11.2919 4.36563L13.622 2.08167C12.1466 0.723645 10.1884 -0.0229766 8.16119 0.000539093C5.07544 0.000539093 2.25359 1.70542 0.868149 4.40972L3.57905 6.47028C4.22379 4.57433 6.03205 3.16633 8.16119 3.16633Z" fill="#FE2C25"/>
</g>
</svg>
