<svg width="191" height="191" viewBox="0 0 191 191" fill="none" xmlns="http://www.w3.org/2000/svg">
<g id="undraw_No_data_re_kwbl">
<path id="Path" d="M121 43.3492H69.3978C66.9494 43.3522 64.9653 45.3744 64.9623 47.8698V164.76L64.3709 164.943L51.7121 168.894C50.4629 169.283 49.1412 168.567 48.7581 167.294L11.1038 41.9357C10.7223 40.6624 11.4251 39.3149 12.674 38.9249L32.1813 32.8371L88.7335 15.1944L108.241 9.10653C108.84 8.91846 109.489 8.98115 110.043 9.28079C110.597 9.58043 111.011 10.0924 111.195 10.7038L120.82 42.7464L121 43.3492Z" fill="#F2F2F2"/>
<path id="Path_2" d="M132.82 42.2448L121.221 3.62445C120.831 2.32486 119.951 1.23643 118.773 0.598798C117.596 -0.0388333 116.218 -0.173391 114.944 0.224749L87.5209 8.78126L30.9782 26.4277L3.55538 34.9873C0.902843 35.8175 -0.589362 38.6804 0.220207 41.3858L39.8628 173.374C40.5112 175.527 42.461 176.998 44.6704 177C45.1686 177 45.6639 176.924 46.1398 176.774L64.9381 170.909L65.5294 170.722V170.092L64.9381 170.276L45.9654 176.198C43.6241 176.926 41.1469 175.584 40.4276 173.199L0.787997 41.208C0.442307 40.0617 0.558188 38.8224 1.11007 37.7634C1.66196 36.7043 2.6045 35.9126 3.72977 35.5629L31.1526 27.0034L87.6954 9.35994L115.118 0.800413C115.541 0.668946 115.98 0.601915 116.422 0.601495C118.368 0.60595 120.085 1.90241 120.656 3.79926L132.202 42.2448L132.385 42.8476H133L132.82 42.2448Z" fill="#3F3D56"/>
<path id="Path_3" d="M36.4552 38C35.2882 37.9992 34.2582 37.2287 33.9153 36.1001L30.1164 23.5455C29.9102 22.8644 29.9799 22.1283 30.3102 21.4993C30.6405 20.8702 31.2043 20.3997 31.8775 20.1913L83.7694 4.11776C85.1711 3.68501 86.6544 4.48216 87.0848 5.89947L90.8837 18.4543C91.3112 19.8724 90.5234 21.3729 89.1227 21.8086L37.2307 37.8821C36.9794 37.9602 36.718 37.9999 36.4552 38Z" fill="#F9A826"/>
<circle id="Oval" cx="56" cy="8" r="6" fill="#F9A826"/>
<ellipse id="Oval_2" cx="56.5" cy="8" rx="3.5" ry="4" fill="white"/>
<path id="Path_4" d="M177.486 176H77.5141C76.1263 175.998 75.0016 174.845 75 173.422V50.5782C75.0016 49.155 76.1262 48.0016 77.5141 48H177.486C178.874 48.0016 179.998 49.155 180 50.5782V173.422C179.998 174.845 178.874 175.998 177.486 176Z" fill="#E6E6E6"/>
<path id="Shape" fill-rule="evenodd" clip-rule="evenodd" d="M132.157 42.6057L131.974 42H185.995C188.758 42.004 190.996 44.3067 191 47.1484V185.852C190.996 188.693 188.758 190.996 185.995 191H70.0047C67.2423 190.996 65.0039 188.693 65 185.852V170.649L65.5888 170.464V185.852C65.5918 188.359 67.5671 190.391 70.0047 190.394H185.995C188.433 190.391 190.408 188.359 190.411 185.852V47.1484C190.408 44.6408 188.433 42.6087 185.995 42.6057H132.157Z" fill="#3F3D56"/>
<path id="Path_5" d="M155.327 56H100.673C99.1976 55.9983 98.0017 54.7645 98 53.2419V39.7581C98.0017 38.2355 99.1976 37.0017 100.673 37H155.327C156.802 37.0017 157.998 38.2355 158 39.7581V53.2419C157.998 54.7645 156.802 55.9983 155.327 56Z" fill="#F9A826"/>
<circle id="Oval_3" cx="128" cy="32" r="6" fill="#F9A826"/>
<circle id="Oval_4" cx="127.5" cy="31.5" r="3.5" fill="white"/>
</g>
</svg>
