<svg width="114" height="172" viewBox="0 0 114 172" fill="none" xmlns="http://www.w3.org/2000/svg">
<path opacity="0.32" d="M7.63659 167.314L0.0275921 97.1242C-0.048659 96.3804 0.0335665 95.6289 0.268851 94.9192C0.504135 94.2095 0.887136 93.5577 1.39262 93.0068C1.8981 92.4558 2.51459 92.0183 3.20146 91.7229C3.88834 91.4275 4.63 91.2811 5.37759 91.2932L63.5846 92.4432C64.8741 92.4721 66.1087 92.9709 67.0563 93.846C68.0039 94.721 68.5993 95.912 68.7306 97.1952L75.3186 163.262C75.3949 163.976 75.3246 164.698 75.112 165.384C74.8995 166.07 74.5491 166.706 74.0825 167.252C73.6158 167.798 73.0426 168.243 72.398 168.559C71.7533 168.876 71.0509 169.057 70.3336 169.093L13.1466 171.993C11.8061 172.057 10.4912 171.61 9.46823 170.741C8.44524 169.872 7.79052 168.647 7.63659 167.314Z" fill="url(#paint0_linear_3949_484)"/>
<path d="M88.2816 63.2602C86.8164 63.2581 85.4019 62.7231 84.3021 61.7549C83.2023 60.7866 82.4923 59.4514 82.3046 57.9982L78.0917 25.9282C77.8255 23.875 77.1576 21.8944 76.126 20.0993C75.0945 18.3043 73.7194 16.7301 72.0795 15.4664C70.4395 14.2028 68.5667 13.2746 66.568 12.7348C64.5693 12.1949 62.4838 12.054 60.4306 12.3202C56.2841 12.8576 52.5209 15.0203 49.9689 18.3323C47.4169 21.6444 46.2852 25.8346 46.8227 29.9812L49.6656 52.1682C49.7998 52.974 49.7694 53.7987 49.5762 54.5924C49.383 55.3862 49.0311 56.1326 48.5416 56.7867C48.0521 57.4408 47.4353 57.9889 46.7282 58.3981C46.0211 58.8073 45.2385 59.0691 44.4275 59.1676C43.6165 59.2661 42.794 59.1994 42.0095 58.9714C41.225 58.7435 40.4948 58.359 39.863 57.8412C39.2311 57.3233 38.7107 56.6829 38.333 55.9585C37.9554 55.2341 37.7284 54.4407 37.6656 53.6262L34.7556 31.4522C34.2847 27.8235 34.5331 24.1377 35.4867 20.6051C36.4402 17.0724 38.0802 13.7622 40.313 10.8634C42.5459 7.9646 45.3278 5.53397 48.5 3.71028C51.6722 1.88659 55.1725 0.705574 58.8012 0.234654C62.4298 -0.236267 66.1156 0.0121343 69.6482 0.965674C73.1809 1.91921 76.4911 3.55922 79.3899 5.79205C82.2887 8.02488 84.7193 10.8068 86.543 13.979C88.3667 17.1512 89.5477 20.6515 90.0186 24.2802L94.2187 56.3502C94.323 57.1368 94.2713 57.9362 94.0663 58.7028C93.8614 59.4694 93.5073 60.188 93.0243 60.8176C92.5413 61.4471 91.9389 61.9753 91.2516 62.3717C90.5642 62.7682 89.8054 63.0253 89.0186 63.1282C88.7767 63.1907 88.5303 63.2349 88.2816 63.2602Z" fill="url(#paint1_linear_3949_484)"/>
<g opacity="0.6">
<path opacity="0.6" d="M80.5197 7.04918C76.2981 4.2642 71.3657 2.74972 66.3086 2.68572C61.2516 2.62171 56.2824 4.01086 51.9917 6.68811C47.701 9.36535 44.2691 13.2181 42.1037 17.7886C39.9384 22.3591 39.1307 27.4551 39.7767 32.4712L42.4767 53.4772C42.5842 54.3674 42.8956 55.2209 43.3867 55.9712C42.379 55.6203 41.4893 54.9949 40.8179 54.1656C40.1465 53.3362 39.7201 52.3358 39.5867 51.2772L36.9047 30.2712C36.2217 24.9506 37.1749 19.5482 39.6374 14.7826C42.0999 10.017 45.9551 6.11411 50.69 3.59309C55.4249 1.07207 60.8151 0.0524343 66.1437 0.669807C71.4723 1.28718 76.4866 3.5123 80.5197 7.04918Z" fill="url(#paint2_linear_3949_484)"/>
<path opacity="0.6" d="M87.4158 60.9572C86.4057 60.6118 85.5125 59.9904 84.8375 59.1635C84.1625 58.3365 83.7327 57.3369 83.5968 56.2782L79.6028 25.9282C79.165 22.6051 77.6248 19.525 75.2288 17.1812C77.1825 18.3238 78.8477 19.8998 80.096 21.7877C81.3443 23.6757 82.1424 25.825 82.4288 28.0702L86.4518 58.4781C86.5689 59.3694 86.8989 60.2193 87.4138 60.9562L87.4158 60.9572Z" fill="url(#paint3_linear_3949_484)"/>
</g>
<path d="M103.214 135.749L35.5016 139.976C33.9194 139.765 32.4148 139.163 31.1242 138.224C29.8335 137.284 28.7977 136.038 28.1106 134.597L20.5886 66.9732C20.5886 66.9732 24.6266 51.2592 38.7486 51.4912C45.7746 51.6082 105.076 118.809 113.094 130.632C111.231 134.539 103.214 135.749 103.214 135.749Z" fill="url(#paint4_linear_3949_484)"/>
<path d="M42.7467 131.203L34.7727 57.3832C34.6851 56.5986 34.7663 55.8042 35.0108 55.0535C35.2553 54.3028 35.6575 53.6131 36.1903 53.0305C36.7232 52.4479 37.3745 51.986 38.1005 51.6756C38.8264 51.3653 39.6104 51.2138 40.3997 51.2312L98.6217 52.3832C100.814 52.4157 102.917 53.254 104.53 54.7382C106.143 56.2225 107.153 58.2487 107.368 60.4302L113.968 126.93C114.044 127.68 113.967 128.437 113.741 129.155C113.515 129.874 113.146 130.539 112.655 131.111C112.164 131.682 111.562 132.148 110.885 132.479C110.209 132.81 109.472 133.001 108.72 133.038L48.5437 136.138C47.1274 136.216 45.7352 135.747 44.6554 134.827C43.5757 133.907 42.8912 132.607 42.7437 131.196L42.7467 131.203Z" fill="url(#paint5_linear_3949_484)"/>
<path opacity="0.32" d="M83.5266 96.4352L84.4446 107.412C84.5453 108.764 84.1089 110.1 83.2301 111.132C82.3512 112.164 81.1009 112.807 79.7506 112.922L78.4966 113.039C77.8245 113.097 77.1477 113.022 76.5047 112.818C75.8617 112.615 75.2653 112.286 74.7494 111.851C74.2335 111.417 73.8084 110.885 73.4984 110.286C73.1884 109.687 72.9995 109.032 72.9426 108.36L72.0426 97.7332C70.1534 96.9081 68.52 95.5915 67.3124 93.9207C66.1049 92.2499 65.3673 90.2859 65.1766 88.2332L64.3456 78.3932C64.17 76.865 64.3032 75.317 64.7372 73.8412C65.1712 72.3654 65.8973 70.9918 66.8722 69.8019C67.8472 68.612 69.0512 67.6301 70.4129 66.9143C71.7746 66.1986 73.2661 65.7636 74.7991 65.6353C76.332 65.5069 77.8751 65.6878 79.3368 66.1671C80.7986 66.6464 82.1491 67.4145 83.3084 68.4257C84.4676 69.4369 85.412 70.6706 86.0854 72.0537C86.7588 73.4368 87.1475 74.941 87.2286 76.4772L88.0736 86.3462C88.2253 88.2746 87.8882 90.2101 87.0934 91.9736C86.2986 93.7371 85.0718 95.2717 83.5266 96.4352Z" fill="url(#paint6_linear_3949_484)"/>
<path d="M74.5576 100.252L75.4176 111.229C75.4614 111.617 75.4614 112.008 75.4176 112.395C74.7177 111.975 74.1269 111.396 73.6937 110.704C73.2604 110.012 72.9969 109.228 72.9246 108.415L72.0246 97.7881C70.1396 96.9509 68.5137 95.6235 67.3163 93.9441C66.1189 92.2648 65.3938 90.295 65.2166 88.2401L64.3856 78.4001C64.2562 76.8366 64.4481 75.2633 64.9494 73.7767C65.4507 72.2902 66.2508 70.9219 67.3006 69.7561C70.1051 69.8563 72.7758 70.9796 74.8088 72.914C76.8417 74.8484 78.0963 77.4601 78.3356 80.2561L79.1666 90.1251C79.322 92.0656 78.9803 94.0137 78.1739 95.7856C77.3675 97.5575 76.1229 99.0946 74.5576 100.252Z" fill="white"/>
<path opacity="0.5" d="M22.6687 65.7362C22.6687 65.7362 29.3447 60.1242 34.8557 58.1122C34.5346 56.1536 34.984 54.1468 36.1097 52.5122C36.1097 52.5122 26.8817 54.4242 22.6687 65.7362Z" fill="url(#paint7_linear_3949_484)"/>
<defs>
<linearGradient id="paint0_linear_3949_484" x1="37.6742" y1="171.999" x2="37.6742" y2="91.2925" gradientUnits="userSpaceOnUse">
<stop stop-color="#D6CAFF"/>
<stop offset="0.21" stop-color="#C8BCF3"/>
<stop offset="0.6" stop-color="#A597D3"/>
<stop offset="1" stop-color="#7A6AAD"/>
</linearGradient>
<linearGradient id="paint1_linear_3949_484" x1="64.4573" y1="63.2602" x2="64.4573" y2="0.192705" gradientUnits="userSpaceOnUse">
<stop stop-color="#FFFFD6"/>
<stop offset="0.14" stop-color="#F1F2D3"/>
<stop offset="0.4" stop-color="#CCD1C9"/>
<stop offset="0.76" stop-color="#909CBB"/>
<stop offset="1" stop-color="#6475B0"/>
</linearGradient>
<linearGradient id="paint2_linear_3949_484" x1="58.6047" y1="55.9712" x2="58.6047" y2="0.494263" gradientUnits="userSpaceOnUse">
<stop/>
<stop offset="1" stop-color="white"/>
</linearGradient>
<linearGradient id="paint3_linear_3949_484" x1="81.3344" y1="17.1812" x2="81.3344" y2="17.2249" gradientUnits="userSpaceOnUse">
<stop/>
<stop offset="1" stop-color="white"/>
</linearGradient>
<linearGradient id="paint4_linear_3949_484" x1="66.8411" y1="139.976" x2="66.8411" y2="51.4886" gradientUnits="userSpaceOnUse">
<stop stop-color="#A190F0"/>
<stop offset="1" stop-color="#D4BDF0"/>
</linearGradient>
<linearGradient id="paint5_linear_3949_484" x1="74.3673" y1="136.147" x2="74.3673" y2="51.2299" gradientUnits="userSpaceOnUse">
<stop stop-color="#8D78ED"/>
<stop offset="1" stop-color="#BE9BE8"/>
</linearGradient>
<linearGradient id="paint6_linear_3949_484" x1="76.2136" y1="113.106" x2="76.2136" y2="65.88" gradientUnits="userSpaceOnUse">
<stop stop-color="#D6CAFF"/>
<stop offset="0.21" stop-color="#C8BCF3"/>
<stop offset="0.6" stop-color="#A597D3"/>
<stop offset="1" stop-color="#7A6AAD"/>
</linearGradient>
<linearGradient id="paint7_linear_3949_484" x1="29.3892" y1="52.5122" x2="29.3892" y2="52.5122" gradientUnits="userSpaceOnUse">
<stop/>
<stop offset="1" stop-color="white"/>
</linearGradient>
</defs>
</svg>
