<svg width="43" height="26" viewBox="0 0 43 26" fill="none" xmlns="http://www.w3.org/2000/svg">
<g id="ic-trending-up-24px">
<g id="Group 427318819">
<path id="Vector 3" d="M31.6157 8.7513C36.5278 9.69344 42 16.0556 42 16.0556V25.5H1V1.79478C1 1.79478 6.02133 1.13151 9.23581 1.7948C15.0024 2.98468 16.1189 9.11102 21.9476 9.96869C25.7119 10.5226 27.8806 8.0349 31.6157 8.7513Z" fill="url(#paint0_linear_2098_1150)"/>
<path id="Vector 2" d="M42 15.5C42 15.5 36.5278 9.38067 31.6157 8.47449C27.8806 7.78544 25.7119 10.1782 21.9476 9.64541C16.1189 8.82048 15.0024 2.928 9.23581 1.78354C6.02133 1.14558 1 1.78353 1 1.78353" stroke="#ED544E" stroke-width="1.18059" stroke-linecap="round"/>
</g>
</g>
<defs>
<linearGradient id="paint0_linear_2098_1150" x1="21.4105" y1="-7.19565" x2="13.9266" y2="13.6415" gradientUnits="userSpaceOnUse">
<stop stop-color="#ED544E"/>
<stop offset="1" stop-color="white" stop-opacity="0"/>
</linearGradient>
</defs>
</svg>
