<svg width="32" height="32" viewBox="0 0 32 32" fill="none" xmlns="http://www.w3.org/2000/svg">
<g id="Growth Indicator">
<circle id="Circle" cx="16" cy="16" r="16" fill="#04CE00"/>
<path id="Arrow" d="M19.5915 14.2953L19.1622 14.7246C16.8648 17.022 14.5672 19.3195 12.2694 21.6173C11.8046 22.0822 11.2554 22.184 10.7068 21.9301C10.1784 21.6816 9.88834 21.2269 9.96537 20.677C10.0346 20.2797 10.222 19.9125 10.5032 19.6234C12.7249 17.3615 14.9754 15.1285 17.2171 12.8867L17.6418 12.4621C17.5047 12.4386 17.3666 12.4225 17.2278 12.4138C16.329 12.4098 15.4295 12.4185 14.5313 12.4071C13.82 12.3991 13.329 11.9095 13.3196 11.229C13.3103 10.4869 13.7557 9.98922 14.4998 9.98453C16.5672 9.97113 18.6335 9.96957 20.6987 9.97984C21.5339 9.98453 22.0041 10.436 22.0195 11.2618C22.0574 13.3118 22.08 15.362 22.0871 17.4124C22.0898 18.1639 21.6009 18.606 20.8541 18.6C20.1494 18.5933 19.686 18.1405 19.6645 17.4104C19.6417 16.5437 19.6397 15.6764 19.627 14.809C19.6243 14.6724 19.6069 14.5384 19.5915 14.2953Z" fill="white"/>
</g>
</svg>
