<svg width="28" height="29" viewBox="0 0 28 29" fill="none" xmlns="http://www.w3.org/2000/svg">
<g id="user-plus">
<path id="Vector" d="M18.6667 25V22.6667C18.6667 21.429 18.175 20.242 17.2998 19.3668C16.4247 18.4917 15.2377 18 14 18H5.83332C4.59565 18 3.40866 18.4917 2.53349 19.3668C1.65832 20.242 1.16666 21.429 1.16666 22.6667V25" stroke="#202226" stroke-width="2" stroke-linecap="round" stroke-linejoin="round"/>
<path id="Vector_2" d="M9.91667 13.3333C12.494 13.3333 14.5833 11.244 14.5833 8.66667C14.5833 6.08934 12.494 4 9.91667 4C7.33934 4 5.25 6.08934 5.25 8.66667C5.25 11.244 7.33934 13.3333 9.91667 13.3333Z" stroke="#202226" stroke-width="2" stroke-linecap="round" stroke-linejoin="round"/>
<path id="Vector_3" d="M23.3333 9.83334V16.8333" stroke="#202226" stroke-width="2" stroke-linecap="round" stroke-linejoin="round"/>
<path id="Vector_4" d="M26.8333 13.3333H19.8333" stroke="#202226" stroke-width="2" stroke-linecap="round" stroke-linejoin="round"/>
</g>
</svg>
