<svg width="24" height="24" viewBox="0 0 24 24" fill="none" xmlns="http://www.w3.org/2000/svg">
<g id="hugeicons:workflow-square-10">
<path id="Vector" d="M12 10V17M9.5 8.5L6.5 11.5M14.5 8.5L17.5 11.5M9.694 3.62C10.816 2.533 11.377 1.99 12.064 2C12.75 2.01 13.294 2.572 14.38 3.694C15.467 4.816 16.01 5.377 16 6.064C15.989 6.75 15.428 7.293 14.306 8.38C13.184 9.467 12.623 10.01 11.936 10C11.25 9.989 10.706 9.428 9.62 8.306C8.533 7.184 7.99 6.623 8 5.936C8.011 5.25 8.572 4.706 9.694 3.62ZM7 13.5C7 14.163 6.73661 14.7989 6.26777 15.2678C5.79893 15.7366 5.16304 16 4.5 16C3.83696 16 3.20107 15.7366 2.73223 15.2678C2.26339 14.7989 2 14.163 2 13.5C2 12.837 2.26339 12.2011 2.73223 11.7322C3.20107 11.2634 3.83696 11 4.5 11C5.16304 11 5.79893 11.2634 6.26777 11.7322C6.73661 12.2011 7 12.837 7 13.5ZM22 13.5C22 12.837 21.7366 12.2011 21.2678 11.7322C20.7989 11.2634 20.163 11 19.5 11C18.837 11 18.2011 11.2634 17.7322 11.7322C17.2634 12.2011 17 12.837 17 13.5C17 14.163 17.2634 14.7989 17.7322 15.2678C18.2011 15.7366 18.837 16 19.5 16C20.163 16 20.7989 15.7366 21.2678 15.2678C21.7366 14.7989 22 14.163 22 13.5ZM9.5 19.4C9.5 18.269 9.5 17.703 9.851 17.351C10.203 17 10.77 17 11.9 17H12.1C13.231 17 13.797 17 14.149 17.351C14.5 17.703 14.5 18.269 14.5 19.4V19.6C14.5 20.731 14.5 21.297 14.149 21.648C13.797 22 13.23 22 12.1 22H11.9C10.769 22 10.203 22 9.851 21.648C9.5 21.297 9.5 20.731 9.5 19.6V19.4Z" stroke="black" stroke-width="1.5" stroke-linecap="round" stroke-linejoin="round"/>
</g>
</svg>
