<svg width="1446" height="1059" viewBox="250 0 1446 1059" fill="none" xmlns="http://www.w3.org/2000/svg">
<path d="M555.309 1058.99H0V0H1446C1440.3 5.47934 1434.14 10.8223 1427.69 15.8803C1421.5 20.7382 1414.85 25.4836 1407.93 29.9838C1394.19 38.8387 1379.85 46.7207 1365.02 53.573C1351.02 60.1052 1336 66.2023 1319.09 72.1981C1305.12 77.1572 1289.71 82.0937 1271.98 87.288C1261.37 90.3803 1250.6 93.4065 1240.18 96.3325H1240.16C1209.55 104.932 1177.89 113.825 1147.88 125.037C1132.9 130.564 1118.23 136.892 1103.92 143.995C1089.61 151.088 1075.85 159.255 1062.76 168.425C1054.99 173.901 1047.58 179.864 1040.57 186.279C1033.48 192.755 1026.8 199.669 1020.57 206.981C1014.34 214.283 1008.59 221.982 1003.34 230.03C998.156 237.994 993.526 246.312 989.488 254.925C972.264 291.812 968.789 329.161 979.441 362.943C983.121 374.172 987.925 384.994 993.78 395.244C999.534 405.597 1006.12 415.799 1012.49 425.664L1012.5 425.677C1019.96 437.216 1027.66 449.147 1034.03 461.339C1037.23 467.391 1040.07 473.627 1042.54 480.017C1045.01 486.417 1046.95 493.013 1048.35 499.736C1051.3 514.381 1051.32 529.472 1048.41 544.126C1045.46 558.861 1040.18 573.023 1032.75 586.064C1018.15 612.109 995.525 635.241 969.045 651.203C962.73 655.009 956.027 658.614 949.127 661.916C942.548 665.064 935.582 668.044 928.409 670.757C914.278 676.048 899.825 680.424 885.138 683.858C855.075 691.045 823.254 695.299 795.17 699.053C762.78 703.383 733.658 707.532 705.226 714.483C690.558 717.992 676.133 722.461 662.044 727.862C654.897 730.636 647.954 733.667 641.406 736.873C634.537 740.237 627.871 743.905 621.597 747.778C608.959 755.577 597.143 764.648 586.328 774.851C575.625 784.957 565.96 796.12 557.478 808.173C549.001 820.229 541.751 833.112 535.836 846.628C529.868 860.284 525.294 874.514 522.184 889.1C519.08 903.688 517.457 918.554 517.339 933.471C517.229 948.239 518.596 962.981 521.418 977.474C524.247 991.965 528.518 1006.13 534.164 1019.76C539.874 1033.53 546.958 1046.68 555.309 1059V1058.99Z" fill="url(#paint0_linear_4148_178)"/>
<path d="M1406 0L1405.67 0.277686C1302.76 81.9198 1159.86 54.0012 1047.74 113.174C997.567 139.676 952.283 185.251 945.694 244.231C937.861 314.221 981.398 375.648 1008.63 436.573C1033.02 491.075 1050.15 558.48 1012.09 611.147C979.123 656.891 921.167 675.104 867.749 681.388C832.073 685.587 796.092 685.67 760.388 689.285C729.103 692.218 698.338 699.277 668.887 710.279C614.46 731.096 565.978 765.068 527.729 809.189C470.165 875.676 441.712 963.213 445.007 1050H442.239C438.641 951.924 475.729 854.043 546.997 784.97C587.917 745.246 637.718 715.954 692.226 699.547C722.671 690.454 754.057 686.588 785.693 684.475C822.449 682.028 859.592 681.5 895.88 674.353C951.428 663.397 1010.46 632.642 1027.27 574.108C1046.64 506.453 1007.09 439.216 978.304 380.793C951.069 325.512 927.765 262.723 954.529 202.604C977.141 151.884 1026.13 116.624 1076.59 97.3822C1141.32 72.688 1211.15 69.0174 1278.13 53.4731C1321.59 43.2397 1365.76 27.4463 1401.41 0H1406Z" fill="#EBF3FF"/>
<defs>
<linearGradient id="paint0_linear_4148_178" x1="723" y1="0" x2="723" y2="1059" gradientUnits="userSpaceOnUse">
<stop stop-color="#2E1249"/>
<stop offset="1" stop-color="#401A65"/>
</linearGradient>
</defs>
</svg>
