<svg width="19" height="23" viewBox="0 0 19 23" fill="none" xmlns="http://www.w3.org/2000/svg">
<g id="Location">
<path id="Location_2" fill-rule="evenodd" clip-rule="evenodd" d="M9.54758 0.720825H9.58439C14.7551 0.741145 18.9464 4.95989 18.926 10.124V10.2265C18.8563 13.917 16.6376 16.9794 14.789 18.8982C14.263 19.4468 13.703 19.9732 13.1255 20.4647C12.7797 20.7598 12.2604 20.7192 11.9649 20.3738C11.6694 20.0274 11.711 19.5087 12.0569 19.2136C12.5917 18.7579 13.112 18.2683 13.6012 17.7583C15.2463 16.0515 17.2189 13.3529 17.279 10.1965C17.2955 5.86072 13.8415 2.3822 9.57761 2.36478H9.54758C5.29821 2.36478 1.83264 5.80944 1.81617 10.0562C1.88883 12.154 2.59803 14.1482 3.86819 15.8212C5.35053 17.7951 7.59922 19.8851 9.7365 21.2765C10.1182 21.5243 10.2258 22.0332 9.97678 22.4144C9.81982 22.6563 9.55533 22.7879 9.28599 22.7879C9.13194 22.7879 8.97693 22.7454 8.83741 22.6544C6.54899 21.1653 4.14044 18.9262 2.55249 16.812C1.07888 14.8701 0.254387 12.5527 0.169128 10.1133C0.189474 4.89796 4.39331 0.720825 9.54758 0.720825ZM7.62248 10.2253C7.62248 11.2829 8.48475 12.145 9.54467 12.145C10.6046 12.145 11.4669 11.2829 11.4669 10.2253C11.4669 9.16673 10.6046 8.30459 9.54467 8.30459C9.09028 8.30459 8.72115 7.9369 8.72115 7.4831C8.72115 7.02833 9.09028 6.66064 9.54467 6.66064C11.5124 6.66064 13.1139 8.25912 13.1139 10.2253C13.1139 12.1905 11.5124 13.789 9.54467 13.789C7.57694 13.789 5.97544 12.1905 5.97544 10.2253C5.97544 9.77051 6.34457 9.40282 6.79896 9.40282C7.25335 9.40282 7.62248 9.77051 7.62248 10.2253Z" fill="white"/>
</g>
</svg>
