<svg width="21" height="21" viewBox="0 0 21 21" fill="none" xmlns="http://www.w3.org/2000/svg">
<g id="253056_wind_high_pressure_windy_weather_icon">
<g id="_x31_7-weather_-_windy_wind_pressure_high">
<path id="Vector" d="M15.3074 11.4286H2.80737V12.6786H14.0574H15.3074C16.6886 12.6786 17.8074 13.7974 17.8074 15.1786C17.8074 16.5586 16.6886 17.6786 15.3074 17.6786H14.0574V18.9286H15.3074C17.3774 18.9286 19.0574 17.2486 19.0574 15.1786C19.0574 13.1086 17.3774 11.4286 15.3074 11.4286ZM19.0574 6.42862C19.0574 4.35737 17.3774 2.67862 15.3074 2.67862V3.92862C16.6886 3.92862 17.8074 5.04737 17.8074 6.42862C17.8074 7.80862 16.6886 8.92862 15.3074 8.92862H4.05737V10.1786H15.3074C17.3774 10.1786 19.0574 8.49987 19.0574 6.42862ZM15.3074 6.42862H6.55737V7.67862H15.3074V6.42862ZM10.3074 13.9286H5.30737V15.1786H10.3074C10.9974 15.1786 11.5574 15.7374 11.5574 16.4286C11.5574 17.1199 10.9986 17.6786 10.3074 17.6786V18.9286C11.6886 18.9286 12.8074 17.8086 12.8074 16.4286C12.8074 15.0486 11.6886 13.9286 10.3074 13.9286Z" fill="white"/>
</g>
</g>
</svg>
