<svg width="111" height="111" viewBox="0 0 111 111" fill="none" xmlns="http://www.w3.org/2000/svg">
<path d="M52.662 22.4205V13.4805H53.646L58.782 20.7045L58.338 20.7525V13.4805H59.526V22.4205H58.542L53.43 15.1485L53.838 15.1005V22.4205H52.662Z" fill="black"/>
<path d="M16.0848 56.7628L13.5768 47.8228H14.8128L16.9128 55.6948H16.6248L18.8088 47.8228H20.0448L22.2168 55.6948H21.9168L24.0288 47.8228H25.2648L22.7568 56.7628H21.4488L19.2648 48.9268H19.5768L17.3928 56.7628H16.0848Z" fill="black"/>
<path d="M91.3575 56.7628V47.8228H97.1775V48.9028H92.5335V51.7348H96.9375V52.8148H92.5335V55.6828H97.1775V56.7628H91.3575Z" fill="black"/>
<path d="M55.7309 96.7882C55.1629 96.7882 54.6429 96.6842 54.1709 96.4762C53.6989 96.2602 53.2989 95.9682 52.9709 95.6002C52.6429 95.2322 52.4069 94.8202 52.2629 94.3642L53.2829 93.9442C53.4989 94.5202 53.8189 94.9642 54.2429 95.2762C54.6749 95.5802 55.1789 95.7322 55.7549 95.7322C56.1069 95.7322 56.4149 95.6762 56.6789 95.5642C56.9429 95.4522 57.1469 95.2962 57.2909 95.0962C57.4429 94.8882 57.5189 94.6482 57.5189 94.3762C57.5189 94.0002 57.4109 93.7042 57.1949 93.4882C56.9869 93.2642 56.6789 93.0962 56.2709 92.9842L54.6269 92.4802C53.9789 92.2802 53.4829 91.9642 53.1389 91.5322C52.7949 91.1002 52.6229 90.6042 52.6229 90.0442C52.6229 89.5562 52.7389 89.1282 52.9709 88.7602C53.2109 88.3842 53.5389 88.0922 53.9549 87.8842C54.3789 87.6682 54.8589 87.5602 55.3949 87.5602C55.9309 87.5602 56.4149 87.6562 56.8469 87.8482C57.2869 88.0402 57.6589 88.3002 57.9629 88.6282C58.2669 88.9482 58.4909 89.3162 58.6349 89.7322L57.6269 90.1522C57.4349 89.6482 57.1469 89.2682 56.7629 89.0122C56.3789 88.7482 55.9269 88.6162 55.4069 88.6162C55.0869 88.6162 54.8029 88.6722 54.5549 88.7842C54.3149 88.8882 54.1269 89.0442 53.9909 89.2522C53.8629 89.4522 53.7989 89.6922 53.7989 89.9722C53.7989 90.3002 53.9029 90.5922 54.1109 90.8482C54.3189 91.1042 54.6349 91.3002 55.0589 91.4362L56.5589 91.8802C57.2629 92.0962 57.7949 92.4042 58.1549 92.8042C58.5149 93.2042 58.6949 93.7002 58.6949 94.2922C58.6949 94.7802 58.5669 95.2122 58.3109 95.5882C58.0629 95.9642 57.7149 96.2602 57.2669 96.4762C56.8269 96.6842 56.3149 96.7882 55.7309 96.7882Z" fill="black"/>
<circle cx="55.3908" cy="55.3908" r="51.3908" stroke="#C4E2FF" stroke-width="8" stroke-dasharray="2 2"/>
</svg>
