<svg width="119" height="95" viewBox="0 0 119 95" fill="none" xmlns="http://www.w3.org/2000/svg">
<path d="M105.469 91.1685C111.471 82.9035 115.071 73.1398 115.87 62.9565C116.67 52.7733 114.638 42.5673 110 33.4667C105.362 24.366 98.2969 16.7252 89.5871 11.3889C80.8772 6.05259 70.8615 3.2286 60.6469 3.2291C50.4324 3.22959 40.4169 6.05457 31.7076 11.3917C22.9983 16.7289 15.9344 24.3704 11.2968 33.4715C6.6592 42.5726 4.62852 52.7788 5.42923 62.9619C6.22993 73.1451 9.83084 82.9085 15.8339 91.1729" stroke="#C4E2FF" stroke-width="5" stroke-dasharray="2 2"/>
<path d="M31.7076 11.3906C22.9983 16.7278 15.9344 24.3693 11.2968 33.4703C6.6592 42.5714 4.62852 52.7777 5.42923 62.9608C6.22993 73.1439 9.83084 82.9073 15.8339 91.1717" stroke="url(#paint0_linear_3290_555)" stroke-width="10"/>
<defs>
<linearGradient id="paint0_linear_3290_555" x1="31.8464" y1="10.9827" x2="-15.2358" y2="71.9127" gradientUnits="userSpaceOnUse">
<stop stop-color="#90C8FD"/>
<stop offset="1" stop-color="#C4E2FF" stop-opacity="0"/>
</linearGradient>
</defs>
</svg>
