<svg width="21" height="21" viewBox="0 0 21 21" fill="none" xmlns="http://www.w3.org/2000/svg">
<g id="7795642_weather_wind_breeze_icon 1" clip-path="url(#clip0_2315_1088)">
<g id="Group">
<path id="Vector" d="M14.0574 6.42987H0.307373V5.17987H14.0574C14.7467 5.17987 15.3074 4.61925 15.3074 3.92987C15.3074 3.2405 14.7467 2.67987 14.0574 2.67987C13.368 2.67987 12.8074 3.2405 12.8074 3.92987H11.5574C11.5574 2.55112 12.6786 1.42987 14.0574 1.42987C15.4361 1.42987 16.5574 2.55112 16.5574 3.92987C16.5574 5.30862 15.4361 6.42987 14.0574 6.42987Z" fill="white"/>
<path id="Vector_2" d="M18.4324 11.4299H17.8074V10.1799H18.4324C18.7774 10.1799 19.0574 9.89925 19.0574 9.55487C19.0574 9.2105 18.7774 8.92987 18.4324 8.92987H11.5574V7.67987H18.4324C19.4661 7.67987 20.3074 8.52112 20.3074 9.55487C20.3074 10.5886 19.4661 11.4299 18.4324 11.4299Z" fill="white"/>
<path id="Vector_3" d="M14.6824 13.9299H14.0574V12.6799H14.6824C15.0274 12.6799 15.3074 12.3992 15.3074 12.0549C15.3074 11.7105 15.0274 11.4299 14.6824 11.4299H0.307373V10.1799H14.6824C15.7161 10.1799 16.5574 11.0211 16.5574 12.0549C16.5574 13.0886 15.7161 13.9299 14.6824 13.9299Z" fill="white"/>
<path id="Vector_4" d="M10.3074 17.6799C8.92862 17.6799 7.80737 16.5586 7.80737 15.1799H9.05737C9.05737 15.8692 9.618 16.4299 10.3074 16.4299C10.9967 16.4299 11.5574 15.8692 11.5574 15.1799C11.5574 14.4905 10.9967 13.9299 10.3074 13.9299H2.80737V12.6799H10.3074C11.6861 12.6799 12.8074 13.8011 12.8074 15.1799C12.8074 16.5586 11.6861 17.6799 10.3074 17.6799Z" fill="white"/>
<path id="Vector_5" d="M2.80737 7.67987H1.55737V8.92987H2.80737V7.67987Z" fill="white"/>
<path id="Vector_6" d="M10.3074 7.67987H4.05737V8.92987H10.3074V7.67987Z" fill="white"/>
<path id="Vector_7" d="M1.55737 12.6799H0.307373V13.9299H1.55737V12.6799Z" fill="white"/>
</g>
</g>
<defs>
<clipPath id="clip0_2315_1088">
<rect width="20" height="20" fill="white" transform="translate(0.307373 0.179871)"/>
</clipPath>
</defs>
</svg>
