<svg width="21" height="21" viewBox="0 0 21 21" fill="none" xmlns="http://www.w3.org/2000/svg">
<g id="340522_drop_rain_water_icon" clip-path="url(#clip0_2315_1081)">
<g id="water_drop">
<g id="Group">
<path id="Vector" d="M10.6399 0.179871C10.6399 0.179871 3.13986 7.228 3.13986 12.6792C3.13986 16.8211 6.49799 20.1799 10.6399 20.1799C14.7811 20.1799 18.1399 16.8211 18.1399 12.6792C18.1399 7.19425 10.6399 0.179871 10.6399 0.179871ZM10.6399 18.9299C7.19299 18.9299 4.38986 16.1261 4.38986 12.6792C4.38986 9.15237 8.33799 4.32612 10.6417 1.93862C12.9455 4.31675 16.8899 9.1305 16.8899 12.6792C16.8899 16.1261 14.0867 18.9299 10.6399 18.9299Z" fill="white"/>
<path id="Vector_2" d="M6.88986 12.4386C6.88986 12.4355 6.89049 12.4324 6.89049 12.4292H5.64049C5.64049 12.4324 5.63986 12.4355 5.63986 12.4386C5.63986 15.1999 7.87861 17.4392 10.6399 17.4392V16.1892C8.57236 16.1892 6.88986 14.5067 6.88986 12.4386Z" fill="white"/>
</g>
</g>
</g>
<defs>
<clipPath id="clip0_2315_1081">
<rect width="20" height="20" fill="white" transform="translate(0.307373 0.179871)"/>
</clipPath>
</defs>
</svg>
