<svg width="40" height="39" viewBox="0 0 40 39" fill="none" xmlns="http://www.w3.org/2000/svg">
<g id="Logo">
<g id="ic_google logo">
<path id="Path" d="M40 20.1104C40 18.8168 39.8875 17.5162 39.6476 16.2436H20.403V23.5716H31.4235C30.9662 25.935 29.4968 28.0257 27.3451 29.3543V34.1091H33.92C37.7809 30.7947 40 25.9 40 20.1104Z" fill="#4285F4"/>
<path id="Path_2" d="M20.403 38.703C25.9057 38.703 30.5464 37.0179 33.9275 34.1091L27.3526 29.3543C25.5234 30.515 23.1619 31.1723 20.4105 31.1723C15.0876 31.1723 10.5745 27.823 8.95512 23.3199H2.17038V28.2215C5.63397 34.6475 12.6886 38.703 20.403 38.703Z" fill="#34A853"/>
<path id="Path_3" d="M8.94761 23.3199C8.09296 20.9565 8.09296 18.3973 8.94761 16.0339V11.1322H2.17037C-0.723456 16.5093 -0.723456 22.8444 2.17037 28.2215L8.94761 23.3199Z" fill="#FBBC04"/>
<path id="Path_4" d="M20.403 8.17446C23.3118 8.13251 26.1231 9.15339 28.2298 11.0273L34.0549 5.59429C30.3664 2.36382 25.4709 0.587769 20.403 0.643708C12.6886 0.643708 5.63397 4.69927 2.17038 11.1322L8.94763 16.0339C10.5595 11.5238 15.0801 8.17446 20.403 8.17446Z" fill="#EA4335"/>
</g>
</g>
</svg>
