<svg width="22" height="22" viewBox="0 0 22 22" fill="none" xmlns="http://www.w3.org/2000/svg">
<g id="tabler:dots">
<g id="Group">
<path id="Vector" d="M11.875 17.125C11.875 16.6418 11.4832 16.25 11 16.25C10.5168 16.25 10.125 16.6418 10.125 17.125C10.125 17.6082 10.5168 18 11 18C11.4832 18 11.875 17.6082 11.875 17.125Z" stroke="#404040" stroke-width="1.575" stroke-linecap="round" stroke-linejoin="round"/>
<path id="Vector_2" d="M11.875 11C11.875 10.5167 11.4832 10.125 11 10.125C10.5168 10.125 10.125 10.5167 10.125 11C10.125 11.4832 10.5168 11.875 11 11.875C11.4832 11.875 11.875 11.4832 11.875 11Z" stroke="#404040" stroke-width="1.575" stroke-linecap="round" stroke-linejoin="round"/>
<path id="Vector_3" d="M11.875 4.875C11.875 4.39175 11.4832 4 11 4C10.5168 4 10.125 4.39175 10.125 4.875C10.125 5.35825 10.5168 5.75 11 5.75C11.4832 5.75 11.875 5.35825 11.875 4.875Z" stroke="#404040" stroke-width="1.575" stroke-linecap="round" stroke-linejoin="round"/>
</g>
</g>
</svg>
